<svg width="512" height="512" viewBox="0 0 512 512" fill="none" xmlns="http://www.w3.org/2000/svg">
<path d="M359.312 0H152.689C68.849 0 0.640015 68.208 0.640015 152.049V359.952C0.640015 443.792 68.849 512 152.689 512H359.312C443.151 512 511.36 443.792 511.36 359.952V152.049C511.359 68.208 443.151 0 359.312 0ZM490.961 359.951C490.961 432.544 431.904 491.601 359.312 491.601H152.689C80.096 491.601 21.039 432.544 21.039 359.952V152.049C21.039 79.456 80.096 20.399 152.689 20.399H359.312C431.904 20.399 490.961 79.456 490.961 152.049V359.951Z" fill="#E5E5E5"/>
<path d="M359.312 58.294H152.689C100.991 58.294 58.933 100.351 58.933 152.049V359.953C58.933 411.65 100.991 453.708 152.689 453.708H359.312C411.009 453.708 453.067 411.65 453.067 359.953V152.049C453.067 100.352 411.009 58.294 359.312 58.294ZM432.669 359.951C432.669 400.4 399.761 433.308 359.312 433.308H152.689C112.239 433.308 79.331 400.4 79.331 359.951V152.048C79.331 111.599 112.239 78.691 152.689 78.691V78.692H359.312C399.761 78.692 432.669 111.6 432.669 152.049V359.951Z" fill="#E5E5E5"/>
<path d="M256 124.178C183.314 124.178 124.179 183.313 124.179 256C124.179 328.687 183.313 387.821 256 387.821C328.687 387.821 387.821 328.687 387.821 256C387.821 183.313 328.686 124.178 256 124.178ZM256 367.422C194.562 367.422 144.578 317.438 144.578 256C144.578 194.561 194.562 144.577 256 144.577C317.439 144.577 367.422 194.561 367.422 256C367.422 317.438 317.438 367.422 256 367.422Z" fill="#E5E5E5"/>
<path d="M256 181.041C214.668 181.041 181.041 214.668 181.041 256C181.041 297.332 214.668 330.959 256 330.959C297.333 330.959 330.959 297.332 330.959 256C330.959 214.668 297.332 181.041 256 181.041ZM256 310.561C225.915 310.561 201.439 286.085 201.439 256C201.439 225.915 225.915 201.439 256 201.439C286.085 201.439 310.561 225.914 310.561 256C310.561 286.085 286.085 310.561 256 310.561Z" fill="#E5E5E5"/>
<path d="M380.485 99.843C363.021 99.843 348.812 114.051 348.812 131.516C348.812 148.981 363.02 163.188 380.485 163.188C397.948 163.188 412.157 148.981 412.157 131.516C412.157 114.051 397.948 99.843 380.485 99.843ZM380.485 142.789C374.269 142.789 369.211 137.732 369.211 131.516C369.211 125.299 374.269 120.242 380.485 120.242C386.701 120.242 391.758 125.3 391.758 131.516C391.759 137.732 386.702 142.789 380.485 142.789Z" fill="#E5E5E5"/>
<path d="M239.681 463.044H143.809C138.176 463.044 133.61 467.61 133.61 473.243C133.61 478.876 138.176 483.442 143.809 483.442H239.681C245.314 483.442 249.88 478.876 249.88 473.243C249.88 467.61 245.314 463.044 239.681 463.044Z" fill="#E5E5E5"/>
<path d="M278.438 463.044H272.318C266.686 463.044 262.119 467.61 262.119 473.243C262.119 478.876 266.686 483.442 272.318 483.442H278.438C284.071 483.442 288.637 478.876 288.637 473.243C288.637 467.61 284.07 463.044 278.438 463.044Z" fill="#E5E5E5"/>
</svg>
