<svg width="457" height="457" viewBox="0 0 457 457" fill="none" xmlns="http://www.w3.org/2000/svg">
<g clip-path="url(#clip0_104_4)">
<path d="M324.194 220.526C318.022 228.298 311.088 235.473 303.124 241.949C348.583 268.025 379.273 317.049 379.273 373.107C379.273 403.397 312.906 427.125 228.183 427.125C143.46 427.125 77.093 403.397 77.093 373.107C77.093 317.049 107.783 268.025 153.242 241.949C145.279 235.473 138.345 228.299 132.172 220.526C81.548 252.495 47.85 308.936 47.85 373.107C47.85 392.546 58.494 419.637 109.205 438.308C140.837 449.955 183.091 456.368 228.184 456.368C273.277 456.368 315.531 449.955 347.163 438.308C397.873 419.637 408.518 392.546 408.518 373.107C408.516 308.936 374.818 252.495 324.194 220.526Z" fill="#E5E5E5"/>
<path d="M228.182 239.795C285.015 239.795 328.779 184.859 328.779 119.898C328.779 54.907 284.993 0 228.182 0C171.349 0 127.585 54.936 127.585 119.897C127.585 184.888 171.372 239.795 228.182 239.795ZM228.182 29.243C267.526 29.243 299.536 69.91 299.536 119.897C299.536 169.884 267.526 210.551 228.182 210.551C188.838 210.551 156.828 169.884 156.828 119.897C156.828 69.91 188.838 29.243 228.182 29.243Z" fill="#E5E5E5"/>
</g>
<defs>
<clipPath id="clip0_104_4">
<rect width="456.368" height="456.368" fill="white"/>
</clipPath>
</defs>
</svg>
